<svg height="512" viewBox="0 0 60 60" width="512" xmlns="http://www.w3.org/2000/svg"><g id="Page-1" fill="none" fill-rule="evenodd"><g id="047---Marker" transform="translate(0 -1)"><path id="Shape" d="m30 60s20-23.3 20-38.44c-.1285173-10.9211936-9.0786496-19.674423-20-19.56-10.9213504-.114423-19.8714827 8.6388064-20 19.56 0 15.14 20 38.44 20 38.44z" fill="#e8edfc"/><path id="Shape" d="m30 2c-.506 0-1 .038-1.5.074 10.3171884.65021913 18.3859009 9.1489722 18.5 19.486 0 12.606-13.861 30.862-18.5 36.62.932 1.156 1.5 1.82 1.5 1.82s20-23.3 20-38.44c-.1285173-10.9211936-9.0786496-19.674423-20-19.56z" fill="#cad9fc"/><circle id="Oval" cx="30" cy="22" fill="#a4c2f7" fill-rule="nonzero" r="9"/><path id="Shape" d="m30 13c-.5028835.0032224-1.0046224.0483789-1.5.135 4.3297277.7267089 7.5010833 4.4747098 7.5010833 8.865s-3.1713556 8.1382911-7.5010833 8.865c3.3570875.5877651 6.7581917-.7711782 8.7859125-3.5104942 2.0277208-2.7393161 2.334161-6.389019.7916126-9.4281058-1.5425485-3.0390868-4.6694296-4.9461397-8.0775251-4.9264z" fill="#7facfa"/><g fill-rule="nonzero"><path id="Shape" d="m28.5 58.18c.271.325.679.854 1.5 1.82 0 0 .568-.664 1.5-1.82-4.639-5.758-18.5-24.014-18.5-36.62.1140991-10.3370278 8.1828116-18.83578087 18.5-19.486-.9987212-.07151991-2.0012788-.07151991-3 0-10.3171884.65021913-18.3859009 9.1489722-18.5 19.486 0 12.606 13.861 30.862 18.5 36.62z" fill="#fff"/><path id="Shape" d="m12.355 29.1-1.905.608c-.88653839-2.6286008-1.37526936-5.3749317-1.45-8.148h2c.0760779 2.566536.5327212 5.1075624 1.355 7.54z" fill="#fff"/><path id="Shape" d="m10.428 26.537c-.55228475.0027614-1.00223858-.4427153-1.005-.995s.44271525-1.0022386.995-1.005h.01c.5522847 0 1 .4477153 1 1s-.4477153 1-1 1z" fill="#428dff"/><path id="Shape" d="m21.845 18.057c-.2502234-.0886459-.5254256-.0741619-.7649615.0402601s-.4237466.3193913-.5120385.5697399c-1.6376872 4.627367.3234663 9.7593868 4.6297559 12.1153185 4.3062896 2.3559318 9.6857099 1.2398729 12.6993646-2.6347149 3.0136546-3.8745878 2.7713608-9.3632163-.5719906-12.957176-3.3433514-3.5939596-8.8001906-4.2316552-12.8821299-1.5054276-.4589486.3076226-.5816226.9290514-.274 1.388s.9290514.5816226 1.388.274c3.2565893-2.1704218 7.6065704-1.6589143 10.2708585 1.2077342 2.664288 2.8666485 2.8565478 7.2423784.4539497 10.3316545s-6.6909537 3.9803328-10.1253528 2.1038979c-3.4343991-1.8764348-5.0012166-5.9665519-3.6994554-9.6572866.0882405-.2503566.0733186-.5255249-.0414776-.7648713-.1147962-.2393463-.320046-.4232288-.5705224-.5111287z" fill="#428dff"/><path id="Shape" d="m14.468 18.018c-.5423007-.1030704-1.0655462.2527723-1.169.795-.1987946 1.0506902-.298897 2.1176688-.299 3.187 0 .5522847.4477153 1 1 1s1-.4477153 1-1c-.0001096-.9438568.0882772-1.885645.264-2.813.0494751-.2605765-.006596-.5301343-.155877-.7493673s-.3795421-.3701807-.640123-.4196327z" fill="#428dff"/><path id="Shape" d="m30 5c-6.0708505.01242728-11.6780192 3.24916304-14.725 8.5-.2561528.4759933-.0876904 1.0693836.3803603 1.3397768s1.0662521.1199053 1.3506397-.3397768c2.6890017-4.63326156 7.6369742-7.4891792 12.994-7.5.5522847 0 1-.44771525 1-1s-.4477153-1-1-1z" fill="#428dff"/><path id="Shape" d="m1 61h2c.55228475 0 1-.4477153 1-1s-.44771525-1-1-1h-2c-.55228475 0-1 .4477153-1 1s.44771525 1 1 1z" fill="#428dff"/><path id="Shape" d="m59 59h-2c-.5522847 0-1 .4477153-1 1s.4477153 1 1 1h2c.5522847 0 1-.4477153 1-1s-.4477153-1-1-1z" fill="#428dff"/><path id="Shape" d="m6 60c0 .5522847.44771525 1 1 1h46c.5522847 0 1-.4477153 1-1s-.4477153-1-1-1h-20.871c4.571-5.629 18.871-24.278 18.871-37.439-.1356745-11.4705837-9.5291097-20.66765136-21-20.561-11.4708903-.10665136-20.86432545 9.0904163-21 20.561 0 .5522847.44771525 1 1 1 .5522847 0 1-.4477153 1-1 .133956-10.3667312 8.6329698-18.66937308 19-18.561 10.3670302-.10837308 18.866044 8.1942688 19 18.561 0 12.934-15.361 32.439-18.989 36.862-3.5291152-4.2907811-6.7970132-8.7899012-9.786-13.473-3.26293-4.9408711-5.9060867-10.2641282-7.87-15.85-.1700959-.5160288-.7182678-.8047032-1.24-.653-.2582867.0747461-.4750598.2513363-.6004862.489175-.1254264.2378386-.1487156.5164644-.0645138.771825 2.0142395 5.7491817 4.7300865 11.2278977 8.086 16.312 2.8742148 4.5014015 6.0029678 8.8351133 9.371 12.98h-20.907c-.55228475 0-1 .4477153-1 1z" fill="#428dff"/><path id="Shape" d="m6 1c-.55228475 0-1 .44771525-1 1v2c0 .55228475.44771525 1 1 1s1-.44771525 1-1v-2c0-.55228475-.44771525-1-1-1z" fill="#428dff"/><path id="Shape" d="m6 9c-.55228475 0-1 .44771525-1 1v2c0 .5522847.44771525 1 1 1s1-.4477153 1-1v-2c0-.55228475-.44771525-1-1-1z" fill="#428dff"/><path id="Shape" d="m3 6h-2c-.55228475 0-1 .44771525-1 1s.44771525 1 1 1h2c.55228475 0 1-.44771525 1-1s-.44771525-1-1-1z" fill="#428dff"/><path id="Shape" d="m11 6h-2c-.55228475 0-1 .44771525-1 1s.44771525 1 1 1h2c.5522847 0 1-.44771525 1-1s-.4477153-1-1-1z" fill="#428dff"/><path id="Shape" d="m51 42c-.5522847 0-1 .4477153-1 1v2c0 .5522847.4477153 1 1 1s1-.4477153 1-1v-2c0-.5522847-.4477153-1-1-1z" fill="#428dff"/><path id="Shape" d="m51 50c-.5522847 0-1 .4477153-1 1v2c0 .5522847.4477153 1 1 1s1-.4477153 1-1v-2c0-.5522847-.4477153-1-1-1z" fill="#428dff"/><path id="Shape" d="m48 47h-2c-.5522847 0-1 .4477153-1 1s.4477153 1 1 1h2c.5522847 0 1-.4477153 1-1s-.4477153-1-1-1z" fill="#428dff"/><path id="Shape" d="m56 47h-2c-.5522847 0-1 .4477153-1 1s.4477153 1 1 1h2c.5522847 0 1-.4477153 1-1s-.4477153-1-1-1z" fill="#428dff"/></g></g></g></svg>