<svg xmlns="http://www.w3.org/2000/svg" viewBox="0 0 64 64"><defs><style>.cls-1{fill:#231f20;}</style></defs><title>Softdrink</title><g id="Softdrink"><path class="cls-1" d="M43,34c0-14.46,1-14.43-4.24-21C35.9,9.32,36,8.91,36,7a1,1,0,0,0,1-1V2.15A2.16,2.16,0,0,0,34.85,0h-5.7A2.16,2.16,0,0,0,27,2.15V6a1,1,0,0,0,1,1V8c0,3.39-7,7.68-7,14,0,13.73-.26,12.6.79,15.87,1.24,3.88,1.9,8.51.23,12.25A10.19,10.19,0,0,0,21,55c0,3.15,3.08,9,6,9a3.64,3.64,0,0,0,2.42-1,3.68,3.68,0,0,0,5.16,0A3.6,3.6,0,0,0,37,64c2.92,0,6-5.85,6-9a10.19,10.19,0,0,0-1-4.88C39.17,43.84,43,37.25,43,34ZM23,23H41V33H23ZM29,2.15c0-.22-.26-.15,5.85-.15.22,0,.15,0,.15,3H29Zm-2.19,12C29.37,10.94,30,9.93,30,7h4V8c0,4.25,6.17,7.91,6.92,13H23.08C23.45,18.48,25.16,16.3,26.81,14.19ZM37,62a2.06,2.06,0,0,1-1.28-.71c.31-.66.46-1.07.62-1.35A1,1,0,0,0,36,58c-2.06,0-1.64,4-4,4s-1.9-4-4-4a1,1,0,0,0-.34,1.94c.15.26.32.72.62,1.35A2.06,2.06,0,0,1,27,62c-1.16,0-4-4.22-4-7a8.31,8.31,0,0,1,.84-4.06c2.9-6.49-.4-13.81-.75-15.94H40.91C40.52,37.37,39,39.66,39,45c0,6.13,2,5.41,2,10C41,57.78,38.16,62,37,62Z"/></g></svg>