<svg xmlns="http://www.w3.org/2000/svg" xmlns:xlink="http://www.w3.org/1999/xlink" viewBox="0 0 64 64"><defs><style>.cls-1{fill:url(#linear-gradient);}.cls-2{fill:url(#linear-gradient-2);}.cls-3{fill:#8a6762;}.cls-4{fill:url(#linear-gradient-3);}.cls-5{fill:#cf4055;}.cls-6{fill:#a88680;}.cls-7{fill:url(#linear-gradient-4);}</style><linearGradient id="linear-gradient" x1="32" y1="63.02" x2="32" y2="6" gradientUnits="userSpaceOnUse"><stop offset="0" stop-color="#9b756d"/><stop offset="1" stop-color="#bc9388"/></linearGradient><linearGradient id="linear-gradient-2" y1="63.02" xlink:href="#linear-gradient"/><linearGradient id="linear-gradient-3" x1="32" y1="34" x2="32" y2="22" gradientUnits="userSpaceOnUse"><stop offset="0" stop-color="#da5466"/><stop offset="1" stop-color="#f4929c"/></linearGradient><linearGradient id="linear-gradient-4" y1="6" y2="1" xlink:href="#linear-gradient-3"/></defs><title>Softdrink</title><g id="Softdrink"><path class="cls-1" d="M42,22c0-6-7-10-7-14V6H29V8c0,4-7,8-7,14V34c0,3,2,5,2,11s-2,5-2,10c0,3,3,8,5,8a3.84,3.84,0,0,0,2.52-1.52,2.77,2.77,0,0,0,5,0A3.84,3.84,0,0,0,37,63c2,0,5-5,5-8,0-5-2-4-2-10s2-8,2-11Z"/><path class="cls-2" d="M41.44,37A22.76,22.76,0,0,0,40,45c0,6,2,5,2,10,0,3-3,8-5,8a3.84,3.84,0,0,1-2.52-1.52,2.77,2.77,0,0,1-5,0A3.84,3.84,0,0,1,27,63c-2,0-5-5-5-8,0-5,2-4,2-10a22.76,22.76,0,0,0-1.44-8c-.74-2.36-.56-1.49-.56-15,0-6,7-10,7-14V6h6a17.7,17.7,0,0,0,.14,3c1,3.68,6.86,7.5,6.86,13C42,35.36,42.19,34.61,41.44,37Z"/><path class="cls-3" d="M40.88,59c-1.05,2.15-2.65,4-3.88,4a3.84,3.84,0,0,1-2.52-1.52,2.77,2.77,0,0,1-5,0A3.84,3.84,0,0,1,27,63c-1.23,0-2.83-1.88-3.88-4,2.18,1.68,3.52,1.16,5.65-.49a4.16,4.16,0,0,0,6.46,0C37.35,60.12,38.69,60.65,40.88,59Z"/><rect class="cls-4" x="22" y="22" width="20" height="12"/><rect class="cls-5" x="22" y="31" width="20" height="3"/><path class="cls-6" d="M35.14,9H28.86L29,6h6A17.7,17.7,0,0,0,35.14,9Z"/><path class="cls-7" d="M29.15,1h5.69A1.15,1.15,0,0,1,36,2.15V6a0,0,0,0,1,0,0H28a0,0,0,0,1,0,0V2.15A1.15,1.15,0,0,1,29.15,1Z"/><rect class="cls-5" x="28" y="4" width="8" height="2"/></g></svg>